<mxfile host="65bd71144e">
    <diagram id="IFaCviqgk2yY5CePmRgC" name="PÃ¡gina-1">
        <mxGraphModel dx="1860" dy="1290" grid="1" gridSize="10" guides="1" tooltips="1" connect="1" arrows="1" fold="1" page="1" pageScale="1" pageWidth="827" pageHeight="1169" math="0" shadow="0">
            <root>
                <mxCell id="0"/>
                <mxCell id="1" parent="0"/>
                <mxCell id="3" value="" style="whiteSpace=wrap;html=1;aspect=fixed;movable=0;resizable=0;rotatable=0;deletable=0;editable=0;locked=1;connectable=0;" vertex="1" parent="1">
                    <mxGeometry x="30" y="50" width="200" height="200" as="geometry"/>
                </mxCell>
                <mxCell id="4" value="" style="shape=mxgraph.signs.people.man_1;html=1;pointerEvents=1;fillColor=#FF0000;strokeColor=#FFE6CC;verticalLabelPosition=bottom;verticalAlign=top;align=center;sketch=0;movable=1;resizable=1;rotatable=1;deletable=1;editable=1;locked=0;connectable=1;" vertex="1" parent="1">
                    <mxGeometry x="51.5" y="60" width="37" height="110" as="geometry"/>
                </mxCell>
                <mxCell id="7" value="" style="whiteSpace=wrap;html=1;aspect=fixed;movable=0;resizable=0;rotatable=0;deletable=0;editable=0;locked=1;connectable=0;" vertex="1" parent="1">
                    <mxGeometry x="290" y="50" width="200" height="200" as="geometry"/>
                </mxCell>
                <mxCell id="8" value="" style="shape=mxgraph.signs.people.man_1;html=1;pointerEvents=1;fillColor=#0000FF;strokeColor=#99FFFF;verticalLabelPosition=bottom;verticalAlign=top;align=center;sketch=0;movable=1;resizable=1;rotatable=1;deletable=1;editable=1;locked=0;connectable=1;" vertex="1" parent="1">
                    <mxGeometry x="311.5" y="60" width="37" height="110" as="geometry"/>
                </mxCell>
                <mxCell id="11" value="" style="whiteSpace=wrap;html=1;aspect=fixed;movable=0;resizable=0;rotatable=0;deletable=0;editable=0;locked=1;connectable=0;" vertex="1" parent="1">
                    <mxGeometry x="580" y="50" width="200" height="200" as="geometry"/>
                </mxCell>
                <mxCell id="12" value="" style="shape=mxgraph.signs.people.man_1;html=1;pointerEvents=1;fillColor=#66FF66;strokeColor=#33FF33;verticalLabelPosition=bottom;verticalAlign=top;align=center;sketch=0;movable=1;resizable=1;rotatable=1;deletable=1;editable=1;locked=0;connectable=1;" vertex="1" parent="1">
                    <mxGeometry x="601.5" y="60" width="37" height="110" as="geometry"/>
                </mxCell>
                <mxCell id="17" value="" style="image;image=img/lib/atlassian/Crucible_Logo.svg;html=1;" vertex="1" parent="1">
                    <mxGeometry x="55" y="60" width="30" height="20" as="geometry"/>
                </mxCell>
                <mxCell id="18" value="" style="image;image=img/lib/atlassian/Bitbucket_Logo.svg;html=1;" vertex="1" parent="1">
                    <mxGeometry x="56" y="80" width="29" height="20" as="geometry"/>
                </mxCell>
                <mxCell id="20" value="" style="rounded=0;whiteSpace=wrap;html=1;movable=0;resizable=0;rotatable=0;deletable=0;editable=0;locked=1;connectable=0;" vertex="1" parent="1">
                    <mxGeometry x="30" y="320" width="200" height="590" as="geometry"/>
                </mxCell>
                <mxCell id="21" value="" style="rounded=0;whiteSpace=wrap;html=1;movable=0;resizable=0;rotatable=0;deletable=0;editable=0;locked=1;connectable=0;" vertex="1" parent="1">
                    <mxGeometry x="290" y="320" width="200" height="590" as="geometry"/>
                </mxCell>
                <mxCell id="22" value="" style="rounded=0;whiteSpace=wrap;html=1;movable=0;resizable=0;rotatable=0;deletable=0;editable=0;locked=1;connectable=0;" vertex="1" parent="1">
                    <mxGeometry x="580" y="320" width="200" height="590" as="geometry"/>
                </mxCell>
                <mxCell id="23" value="" style="shape=offPageConnector;whiteSpace=wrap;html=1;fillColor=#647687;fontColor=#ffffff;strokeColor=#314354;" vertex="1" parent="1">
                    <mxGeometry x="90" y="350" width="80" height="80" as="geometry"/>
                </mxCell>
                <mxCell id="24" value="" style="shape=offPageConnector;whiteSpace=wrap;html=1;fillColor=#FF8000;" vertex="1" parent="1">
                    <mxGeometry x="90" y="480" width="80" height="80" as="geometry"/>
                </mxCell>
                <mxCell id="25" value="" style="shape=offPageConnector;whiteSpace=wrap;html=1;fillColor=#a0522d;fontColor=#ffffff;strokeColor=#6D1F00;" vertex="1" parent="1">
                    <mxGeometry x="90" y="630" width="80" height="80" as="geometry"/>
                </mxCell>
                <mxCell id="26" value="" style="shape=offPageConnector;whiteSpace=wrap;html=1;fillColor=#0050ef;fontColor=#ffffff;strokeColor=#001DBC;" vertex="1" parent="1">
                    <mxGeometry x="90" y="760" width="80" height="80" as="geometry"/>
                </mxCell>
                <mxCell id="27" value="" style="verticalLabelPosition=bottom;verticalAlign=top;html=1;shape=mxgraph.basic.6_point_star;fillColor=#1ba1e2;fontColor=#ffffff;strokeColor=#CCCCCC;strokeWidth=5;" vertex="1" parent="1">
                    <mxGeometry x="340" y="350" width="100" height="90" as="geometry"/>
                </mxCell>
                <mxCell id="28" value="" style="verticalLabelPosition=bottom;verticalAlign=top;html=1;shape=mxgraph.basic.6_point_star;fillColor=#1ba1e2;strokeWidth=7;strokeColor=#05FFB4;fontColor=#ffffff;" vertex="1" parent="1">
                    <mxGeometry x="340" y="470" width="100" height="90" as="geometry"/>
                </mxCell>
                <mxCell id="29" value="" style="verticalLabelPosition=bottom;verticalAlign=top;html=1;shape=mxgraph.basic.6_point_star;fillColor=#CCFFFF;strokeColor=#FFFF00;strokeWidth=4;" vertex="1" parent="1">
                    <mxGeometry x="340" y="620" width="100" height="90" as="geometry"/>
                </mxCell>
                <mxCell id="30" value="" style="verticalLabelPosition=bottom;verticalAlign=top;html=1;shape=mxgraph.basic.6_point_star;fillColor=light-dark(#ff0000, #ffb5b5);strokeColor=#CCCC00;strokeWidth=7;" vertex="1" parent="1">
                    <mxGeometry x="340" y="755" width="100" height="90" as="geometry"/>
                </mxCell>
                <mxCell id="31" value="" style="verticalLabelPosition=bottom;verticalAlign=top;html=1;shape=mxgraph.basic.acute_triangle;dx=0.5;fillColor=#CC0000;strokeColor=#CCCC00;strokeWidth=5;rotation=90;" vertex="1" parent="1">
                    <mxGeometry x="630" y="350" width="100" height="70" as="geometry"/>
                </mxCell>
                <mxCell id="32" value="" style="verticalLabelPosition=bottom;verticalAlign=top;html=1;shape=mxgraph.basic.acute_triangle;dx=0.5;fillColor=#14B0FF;strokeColor=#0000FF;strokeWidth=5;rotation=90;" vertex="1" parent="1">
                    <mxGeometry x="630" y="485" width="100" height="70" as="geometry"/>
                </mxCell>
                <mxCell id="33" value="" style="verticalLabelPosition=bottom;verticalAlign=top;html=1;shape=mxgraph.basic.acute_triangle;dx=0.5;fillColor=#009900;strokeColor=#0000CC;strokeWidth=6;rotation=90;" vertex="1" parent="1">
                    <mxGeometry x="630" y="620" width="100" height="70" as="geometry"/>
                </mxCell>
                <mxCell id="34" value="" style="verticalLabelPosition=bottom;verticalAlign=top;html=1;shape=mxgraph.basic.acute_triangle;dx=0.5;fillColor=#E6E6E6;strokeColor=#33FFFF;strokeWidth=5;rotation=90;" vertex="1" parent="1">
                    <mxGeometry x="630" y="770" width="100" height="70" as="geometry"/>
                </mxCell>
                <mxCell id="35" value="" style="rounded=0;whiteSpace=wrap;html=1;rotation=-90;" vertex="1" parent="1">
                    <mxGeometry x="290" y="740" width="200" height="590" as="geometry"/>
                </mxCell>
                <mxCell id="36" value="" style="verticalLabelPosition=bottom;verticalAlign=top;html=1;shape=mxgraph.basic.polygon;polyCoords=[[0.25,0],[0.75,0],[1,0.25],[1,0.75],[0.75,1],[0.25,1],[0,0.75],[0,0.25]];polyline=0;fillColor=#000000;strokeColor=light-dark(#FF6666,#EDEDED);strokeWidth=10;" vertex="1" parent="1">
                    <mxGeometry x="140" y="985" width="100" height="100" as="geometry"/>
                </mxCell>
                <mxCell id="37" value="" style="verticalLabelPosition=bottom;verticalAlign=top;html=1;shape=mxgraph.basic.polygon;polyCoords=[[0.25,0],[0.75,0],[1,0.25],[1,0.75],[0.75,1],[0.25,1],[0,0.75],[0,0.25]];polyline=0;fillColor=#00FFA1;strokeColor=#FF6666;perimeterSpacing=10;strokeWidth=9;" vertex="1" parent="1">
                    <mxGeometry x="270" y="985" width="100" height="100" as="geometry"/>
                </mxCell>
                <mxCell id="38" value="" style="verticalLabelPosition=bottom;verticalAlign=top;html=1;shape=mxgraph.basic.polygon;polyCoords=[[0.25,0],[0.75,0],[1,0.25],[1,0.75],[0.75,1],[0.25,1],[0,0.75],[0,0.25]];polyline=0;fillColor=#99CCFF;strokeColor=#99FF99;perimeterSpacing=10;" vertex="1" parent="1">
                    <mxGeometry x="413.5" y="985" width="100" height="100" as="geometry"/>
                </mxCell>
                <mxCell id="39" value="" style="verticalLabelPosition=bottom;verticalAlign=top;html=1;shape=mxgraph.basic.polygon;polyCoords=[[0.25,0],[0.75,0],[1,0.25],[1,0.75],[0.75,1],[0.25,1],[0,0.75],[0,0.25]];polyline=0;fillColor=#595959;strokeColor=#FFFF00;perimeterSpacing=19;strokeWidth=8;" vertex="1" parent="1">
                    <mxGeometry x="560" y="985" width="100" height="100" as="geometry"/>
                </mxCell>
                <mxCell id="40" value="" style="shape=mxgraph.signs.travel.baggage;html=1;pointerEvents=1;fillColor=#FF8000;strokeColor=none;verticalLabelPosition=bottom;verticalAlign=top;align=center;sketch=0;rotation=-180;" vertex="1" parent="1">
                    <mxGeometry x="110.25" y="356" width="39.5" height="58" as="geometry"/>
                </mxCell>
                <mxCell id="41" value="" style="shape=mxgraph.signs.travel.baggage;html=1;pointerEvents=1;fillColor=#FF8000;strokeColor=none;verticalLabelPosition=bottom;verticalAlign=top;align=center;sketch=0;" vertex="1" parent="1">
                    <mxGeometry x="110.25" y="377" width="40" height="36" as="geometry"/>
                </mxCell>
                <mxCell id="42" value="" style="shape=mxgraph.signs.sports.baseball;html=1;pointerEvents=1;fillColor=#FFFFCC;strokeColor=none;verticalLabelPosition=bottom;verticalAlign=top;align=center;sketch=0;" vertex="1" parent="1">
                    <mxGeometry x="101" y="490" width="39" height="60" as="geometry"/>
                </mxCell>
                <mxCell id="45" value="" style="shape=mxgraph.signs.sports.scenic_viewpoint;html=1;pointerEvents=1;fillColor=#FFFF66;strokeColor=none;verticalLabelPosition=bottom;verticalAlign=top;align=center;sketch=0;" vertex="1" parent="1">
                    <mxGeometry x="120.25" y="470" width="39.75" height="64" as="geometry"/>
                </mxCell>
                <mxCell id="46" value="" style="verticalLabelPosition=bottom;html=1;verticalAlign=top;align=center;shape=mxgraph.floorplan.doorRevolving;aspect=fixed;" vertex="1" parent="1">
                    <mxGeometry x="107.5" y="641.1" width="45" height="47.81" as="geometry"/>
                </mxCell>
                <mxCell id="47" value="" style="shape=mxgraph.signs.transportation.anchor_1;html=1;pointerEvents=1;fillColor=#000000;strokeColor=none;verticalLabelPosition=bottom;verticalAlign=top;align=center;sketch=0;" vertex="1" parent="1">
                    <mxGeometry x="105.25" y="770" width="49.5" height="50" as="geometry"/>
                </mxCell>
                <mxCell id="48" value="" style="shape=mxgraph.signs.travel.exit;html=1;pointerEvents=1;fillColor=#000000;strokeColor=none;verticalLabelPosition=bottom;verticalAlign=top;align=center;sketch=0;" vertex="1" parent="1">
                    <mxGeometry x="112.87" y="770" width="34.25" height="20" as="geometry"/>
                </mxCell>
                <mxCell id="50" value="" style="shape=mxgraph.signs.nature.sun_2;html=1;pointerEvents=1;fillColor=#CC0000;strokeColor=none;verticalLabelPosition=bottom;verticalAlign=top;align=center;sketch=0;" vertex="1" parent="1">
                    <mxGeometry x="380" y="379.3" width="35.5" height="29" as="geometry"/>
                </mxCell>
                <mxCell id="53" value="" style="shape=mxgraph.signs.travel.arrow_north;html=1;pointerEvents=1;fillColor=#000000;strokeColor=none;verticalLabelPosition=bottom;verticalAlign=top;align=center;sketch=0;" vertex="1" parent="1">
                    <mxGeometry x="370" y="385" width="10" height="10" as="geometry"/>
                </mxCell>
                <mxCell id="54" value="" style="shape=mxgraph.signs.travel.arrow_north;html=1;pointerEvents=1;fillColor=#000000;strokeColor=none;verticalLabelPosition=bottom;verticalAlign=top;align=center;sketch=0;" vertex="1" parent="1">
                    <mxGeometry x="370" y="398.3" width="10" height="10" as="geometry"/>
                </mxCell>
                <mxCell id="59" value="" style="verticalLabelPosition=bottom;verticalAlign=top;html=1;shape=mxgraph.basic.4_point_star_2;dx=0.8;fillColor=#FFFF33;" vertex="1" parent="1">
                    <mxGeometry x="382.75" y="500" width="30" height="30" as="geometry"/>
                </mxCell>
                <mxCell id="62" value="" style="shape=mxgraph.signs.travel.arrow_north;html=1;pointerEvents=1;fillColor=#000000;strokeColor=none;verticalLabelPosition=bottom;verticalAlign=top;align=center;sketch=0;" vertex="1" parent="1">
                    <mxGeometry x="372.75" y="500" width="10" height="10" as="geometry"/>
                </mxCell>
                <mxCell id="63" value="" style="shape=mxgraph.signs.travel.arrow_north;html=1;pointerEvents=1;fillColor=#000000;strokeColor=none;verticalLabelPosition=bottom;verticalAlign=top;align=center;sketch=0;" vertex="1" parent="1">
                    <mxGeometry x="372.75" y="515" width="10" height="10" as="geometry"/>
                </mxCell>
                <mxCell id="65" value="" style="shape=mxgraph.signs.nature.sun_1;html=1;pointerEvents=1;fillColor=#000000;strokeColor=none;verticalLabelPosition=bottom;verticalAlign=top;align=center;sketch=0;" vertex="1" parent="1">
                    <mxGeometry x="365" y="645" width="51" height="40" as="geometry"/>
                </mxCell>
                <mxCell id="66" value="" style="shape=mxgraph.signs.safety.high_voltage_1;html=1;pointerEvents=1;fillColor=#FFFF33;strokeColor=none;verticalLabelPosition=bottom;verticalAlign=top;align=center;sketch=0;rotation=-90;" vertex="1" parent="1">
                    <mxGeometry x="365" y="777.5" width="20" height="45" as="geometry"/>
                </mxCell>
                <mxCell id="67" value="" style="shape=mxgraph.signs.sports.running;html=1;pointerEvents=1;fillColor=#000000;strokeColor=none;verticalLabelPosition=bottom;verticalAlign=top;align=center;sketch=0;" vertex="1" parent="1">
                    <mxGeometry x="390.5" y="777.5" width="25" height="30" as="geometry"/>
                </mxCell>
                <mxCell id="70" value="" style="shape=mxgraph.signs.sports.swimming_2;html=1;pointerEvents=1;fillColor=#000000;strokeColor=none;verticalLabelPosition=bottom;verticalAlign=top;align=center;sketch=0;" vertex="1" parent="1">
                    <mxGeometry x="376" y="800" width="25" height="20" as="geometry"/>
                </mxCell>
                <mxCell id="71" value="" style="shape=mxgraph.signs.sports.archery;html=1;pointerEvents=1;fillColor=#FFFF66;strokeColor=none;verticalLabelPosition=bottom;verticalAlign=top;align=center;sketch=0;" vertex="1" parent="1">
                    <mxGeometry x="650" y="363.3" width="28" height="45" as="geometry"/>
                </mxCell>
                <mxCell id="72" value="" style="shape=mxgraph.signs.sports.scenic_viewpoint;html=1;pointerEvents=1;verticalLabelPosition=bottom;verticalAlign=top;align=center;sketch=0;rotation=-90;" vertex="1" parent="1">
                    <mxGeometry x="650" y="350" width="20" height="30" as="geometry"/>
                </mxCell>
                <mxCell id="78" value="" style="shape=mxgraph.signs.sports.archery;html=1;pointerEvents=1;fillColor=#000000;strokeColor=none;verticalLabelPosition=bottom;verticalAlign=top;align=center;sketch=0;" vertex="1" parent="1">
                    <mxGeometry x="650" y="500" width="20" height="30" as="geometry"/>
                </mxCell>
                <mxCell id="79" value="" style="shape=mxgraph.signs.healthcare.hospital_1;html=1;pointerEvents=1;fillColor=#FFFF66;strokeColor=none;verticalLabelPosition=bottom;verticalAlign=top;align=center;sketch=0;" vertex="1" parent="1">
                    <mxGeometry x="667.5" y="507" width="12.5" height="13" as="geometry"/>
                </mxCell>
                <mxCell id="80" value="2&lt;div&gt;&lt;br&gt;&lt;/div&gt;" style="text;html=1;align=center;verticalAlign=middle;whiteSpace=wrap;rounded=0;" vertex="1" parent="1">
                    <mxGeometry x="653.75" y="520" width="40" height="30" as="geometry"/>
                </mxCell>
                <mxCell id="81" value="" style="shape=mxgraph.signs.healthcare.heart_1;html=1;pointerEvents=1;fillColor=#6a00ff;strokeColor=#3700CC;verticalLabelPosition=bottom;verticalAlign=top;align=center;sketch=0;fontColor=#ffffff;" vertex="1" parent="1">
                    <mxGeometry x="653.75" y="645" width="22.5" height="20" as="geometry"/>
                </mxCell>
                <mxCell id="82" value="" style="dashed=0;outlineConnect=0;html=1;align=center;labelPosition=center;verticalLabelPosition=bottom;verticalAlign=top;shape=mxgraph.weblogos.adobe_pdf;fillColor=#B266FF;" vertex="1" parent="1">
                    <mxGeometry x="650" y="638" width="30" height="27" as="geometry"/>
                </mxCell>
                <mxCell id="83" value="" style="shape=mxgraph.signs.travel.arrow_south;html=1;pointerEvents=1;fillColor=#6a00ff;strokeColor=#3700CC;verticalLabelPosition=bottom;verticalAlign=top;align=center;sketch=0;fontColor=#ffffff;" vertex="1" parent="1">
                    <mxGeometry x="680.75" y="646.5" width="13" height="10" as="geometry"/>
                </mxCell>
                <mxCell id="85" value="" style="shape=mxgraph.signs.sports.running;html=1;pointerEvents=1;fillColor=#000000;strokeColor=none;verticalLabelPosition=bottom;verticalAlign=top;align=center;sketch=0;" vertex="1" parent="1">
                    <mxGeometry x="661.87" y="792.5" width="23.75" height="27.5" as="geometry"/>
                </mxCell>
                <mxCell id="86" value="" style="shape=mxgraph.signs.safety.high_voltage_1;html=1;pointerEvents=1;fillColor=#1ba1e2;strokeColor=#006EAF;verticalLabelPosition=bottom;verticalAlign=top;align=center;sketch=0;rotation=-180;fontColor=#ffffff;" vertex="1" parent="1">
                    <mxGeometry x="647.37" y="803.25" width="14.5" height="19.25" as="geometry"/>
                </mxCell>
                <mxCell id="87" value="" style="shape=mxgraph.signs.safety.high_voltage_1;html=1;pointerEvents=1;fillColor=#1ba1e2;strokeColor=#006EAF;verticalLabelPosition=bottom;verticalAlign=top;align=center;sketch=0;rotation=-180;fontColor=#ffffff;" vertex="1" parent="1">
                    <mxGeometry x="650" y="781.5" width="13.75" height="18.5" as="geometry"/>
                </mxCell>
                <mxCell id="88" value="" style="shape=mxgraph.signs.sports.life_jacket;html=1;pointerEvents=1;fillColor=#FF0000;strokeColor=light-dark(#00bdba, #b2cbff);verticalLabelPosition=bottom;verticalAlign=top;align=center;sketch=0;fontColor=#ffffff;" vertex="1" parent="1">
                    <mxGeometry x="190.25" y="1006" width="39.75" height="40" as="geometry"/>
                </mxCell>
                <mxCell id="90" value="" style="shape=mxgraph.signs.sports.rock_collection;html=1;pointerEvents=1;fillColor=#66FFFF;strokeColor=none;verticalLabelPosition=bottom;verticalAlign=top;align=center;sketch=0;rotation=-60;" vertex="1" parent="1">
                    <mxGeometry x="160" y="1011.75" width="46.75" height="46.5" as="geometry"/>
                </mxCell>
                <mxCell id="92" value="" style="shape=mxgraph.signs.travel.arrow_south;html=1;pointerEvents=1;fillColor=#66FFFF;strokeColor=#66FFFF;verticalLabelPosition=bottom;verticalAlign=top;align=center;sketch=0;fontColor=#ffffff;" vertex="1" parent="1">
                    <mxGeometry x="157" y="1046" width="13" height="10" as="geometry"/>
                </mxCell>
                <mxCell id="93" value="" style="shape=mxgraph.signs.travel.arrow_south;html=1;pointerEvents=1;fillColor=#66FFFF;strokeColor=#66FFFF;verticalLabelPosition=bottom;verticalAlign=top;align=center;sketch=0;fontColor=#ffffff;" vertex="1" parent="1">
                    <mxGeometry x="170" y="1058.25" width="13" height="10" as="geometry"/>
                </mxCell>
                <mxCell id="94" value="" style="shape=mxgraph.signs.healthcare.first_aid;html=1;pointerEvents=1;fillColor=#008a00;strokeColor=#005700;verticalLabelPosition=bottom;verticalAlign=top;align=center;sketch=0;fontColor=#ffffff;" vertex="1" parent="1">
                    <mxGeometry x="280" y="1011.75" width="52" height="41" as="geometry"/>
                </mxCell>
                <mxCell id="95" value="" style="shape=mxgraph.signs.travel.arrow_north;html=1;pointerEvents=1;fillColor=light-dark(#3a6d37, #008500);strokeColor=none;verticalLabelPosition=bottom;verticalAlign=top;align=center;sketch=0;" vertex="1" parent="1">
                    <mxGeometry x="338.5" y="1006" width="10" height="10" as="geometry"/>
                </mxCell>
                <mxCell id="96" value="" style="shape=mxgraph.signs.travel.arrow_north;html=1;pointerEvents=1;fillColor=light-dark(#3a6d37, #008500);strokeColor=none;verticalLabelPosition=bottom;verticalAlign=top;align=center;sketch=0;" vertex="1" parent="1">
                    <mxGeometry x="348.5" y="1016" width="10" height="10" as="geometry"/>
                </mxCell>
                <mxCell id="97" value="" style="shape=mxgraph.signs.travel.arrow_north;html=1;pointerEvents=1;fillColor=light-dark(#3a6d37, #008500);strokeColor=none;verticalLabelPosition=bottom;verticalAlign=top;align=center;sketch=0;" vertex="1" parent="1">
                    <mxGeometry x="340" y="1027.25" width="10" height="10" as="geometry"/>
                </mxCell>
                <mxCell id="100" value="" style="shape=mxgraph.signs.sports.running;html=1;pointerEvents=1;fillColor=#000000;strokeColor=none;verticalLabelPosition=bottom;verticalAlign=top;align=center;sketch=0;" vertex="1" parent="1">
                    <mxGeometry x="440" y="1021.25" width="23.75" height="27.5" as="geometry"/>
                </mxCell>
                <mxCell id="101" value="" style="shape=mxgraph.signs.safety.high_voltage_1;html=1;pointerEvents=1;fillColor=#1ba1e2;strokeColor=#006EAF;verticalLabelPosition=bottom;verticalAlign=top;align=center;sketch=0;rotation=-180;fontColor=#ffffff;" vertex="1" parent="1">
                    <mxGeometry x="460" y="1006" width="14.5" height="19.25" as="geometry"/>
                </mxCell>
                <mxCell id="102" value="" style="shape=mxgraph.signs.safety.high_voltage_1;html=1;pointerEvents=1;fillColor=#1ba1e2;strokeColor=#006EAF;verticalLabelPosition=bottom;verticalAlign=top;align=center;sketch=0;rotation=-180;fontColor=#ffffff;" vertex="1" parent="1">
                    <mxGeometry x="474.5" y="1025.25" width="14.5" height="19.25" as="geometry"/>
                </mxCell>
                <mxCell id="104" value="" style="shape=mxgraph.signs.travel.arrow_north;html=1;pointerEvents=1;fillColor=#000000;strokeColor=none;verticalLabelPosition=bottom;verticalAlign=top;align=center;sketch=0;" vertex="1" parent="1">
                    <mxGeometry x="580" y="1009.25" width="20" height="23.5" as="geometry"/>
                </mxCell>
                <mxCell id="105" value="" style="shape=mxgraph.signs.travel.upstairs;html=1;pointerEvents=1;fillColor=#000000;strokeColor=none;verticalLabelPosition=bottom;verticalAlign=top;align=center;sketch=0;rotation=-30;" vertex="1" parent="1">
                    <mxGeometry x="585" y="1009.5" width="50" height="45.5" as="geometry"/>
                </mxCell>
                <mxCell id="107" value="" style="image;image=img/lib/atlassian/Bitbucket_Logo.svg;html=1;rotation=90;" vertex="1" parent="1">
                    <mxGeometry x="61.5" y="130" width="28.5" height="10" as="geometry"/>
                </mxCell>
                <mxCell id="108" value="" style="image;image=img/lib/atlassian/Bitbucket_Logo.svg;html=1;rotation=-90;" vertex="1" parent="1">
                    <mxGeometry x="51.5" y="130" width="28.5" height="10" as="geometry"/>
                </mxCell>
                <mxCell id="109" value="" style="image;image=img/lib/atlassian/Stride_Logo.svg;html=1;rotation=90;" vertex="1" parent="1">
                    <mxGeometry x="54.75" y="155" width="22" height="5" as="geometry"/>
                </mxCell>
                <mxCell id="111" value="" style="image;image=img/lib/atlassian/Stride_Logo.svg;html=1;rotation=-90;" vertex="1" parent="1">
                    <mxGeometry x="65" y="155" width="20" height="5" as="geometry"/>
                </mxCell>
            </root>
        </mxGraphModel>
    </diagram>
</mxfile>